<?xml version="1.0" encoding="UTF-8" standalone="no"?>
<svg
   xmlns:dc="http://purl.org/dc/elements/1.1/"
   xmlns:cc="http://creativecommons.org/ns#"
   xmlns:rdf="http://www.w3.org/1999/02/22-rdf-syntax-ns#"
   xmlns:svg="http://www.w3.org/2000/svg"
   xmlns="http://www.w3.org/2000/svg"
   width="18.345848mm"
   height="14.138328mm"
   viewBox="0 0 65.004974 50.096436"
   id="svg4157"
   version="1.1">
  <defs
     id="defs4159" />
  <metadata
     id="metadata4162">
    <rdf:RDF>
      <cc:Work
         rdf:about="">
        <dc:format>image/svg+xml</dc:format>
        <dc:type
           rdf:resource="http://purl.org/dc/dcmitype/StillImage" />
        <dc:title></dc:title>
      </cc:Work>
    </rdf:RDF>
  </metadata>
  <g
     id="layer1"
     transform="translate(0.50248813,0.28393469)">
    <path
       style="fill:none;fill-rule:evenodd;stroke:#000000;stroke-width:1px;stroke-linecap:butt;stroke-linejoin:miter;stroke-opacity:1"
       d="M 31.9375,0.21875 C 31.86973,0.2295488 31.822049,0.2578969 31.78125,0.28125 31.672725,0.37187346 31.571656,0.508205 31.5,0.625 c -0.03614,0.0602071 -0.06208,0.095702 -0.09375,0.15625 -0.07403,0.15902301 -0.135583,0.3268225 -0.1875,0.5 C 31.17324,1.3985402 31.12576,1.510751 31.09375,1.625 31.061962,1.7428305 31.051772,1.8837099 31.03125,2 31.013723,2.1172825 31.001884,2.2232944 31,2.34375 A 0.050005,0.050005 0 0 0 31,2.375 0.050005,0.050005 0 0 0 31,2.40625 C 30.9918,2.429058 30.95527,2.422581 30.9375,2.4375 30.91381,2.457392 30.88347,2.488275 30.84375,2.5 c -0.07944,0.02345 -0.16785,0.042313 -0.25,0.0625 -0.142298,0.027931 -0.321549,0.011037 -0.5,0.03125 -0.178451,0.020213 -0.362341,0.079026 -0.5,0.1875 -0.232524,0.2710695 -0.269126,0.6354569 -0.375,0.9375 -0.515728,1.9222735 -0.692683,3.8981369 -0.8125,5.875 -0.0025,0.039801 -0.0291,0.08613 -0.03125,0.125 -5.12e-4,0.00925 5.69e-4,0.022042 0,0.03125 l -3.75,1.59375 -0.03125,0 -0.03125,0 L 1.03125,13.125 1,13.125 a 0.050005,0.050005 0 0 0 -0.03125,0 c -0.0142757,0.0014 -0.0171094,0.02929 -0.03125,0.03125 -0.49350918,0.06826 -0.88359986,0.49922 -0.90625,1 A 0.050005,0.050005 0 0 0 0,14.1875 c -2.5577425e-5,0.01009 -2.9111128e-4,0.02111 0,0.03125 A 0.050005,0.050005 0 0 0 0,14.25 l 0,5.0625 a 0.050005,0.050005 0 0 0 0,0.03125 0.050005,0.050005 0 0 0 0,0.03125 c 2.7397524e-4,0.0076 0.03048716,-0.0075 0.03125,0 a 0.050005,0.050005 0 0 0 0,0.03125 0.050005,0.050005 0 0 0 0.03125,0 c 0.02951574,0.118004 0.10643771,0.204628 0.21875,0.25 0.008119,0.0033 -0.008332,0.02849 0,0.03125 a 0.050005,0.050005 0 0 0 0,0.03125 c 0.007096,0.0018 0.0240449,-0.0015 0.03125,0 a 0.050005,0.050005 0 0 0 0.03125,0 L 28.4375,24.3125 c 0.07632,1.73868 0.196986,3.45307 0.375,5.1875 0.345732,3.673262 0.848433,7.32759 1.4375,10.96875 l -6.96875,1.375 -0.0625,0 a 0.050005,0.050005 0 0 0 -0.03125,0 0.050005,0.050005 0 0 0 0,0.03125 c -0.291266,0.06923 -0.590135,0.19983 -0.78125,0.4375 -0.282641,0.328422 -0.401461,0.745626 -0.46875,1.15625 -0.09612,0.640251 -0.04006,1.301405 0.03125,1.9375 0.08652,0.703658 0.205326,1.376189 0.375,2.0625 0.02,0.08426 0.07303,0.168374 0.09375,0.25 a 0.050005,0.050005 0 0 0 0,0.03125 0.050005,0.050005 0 0 0 0,0.03125 0.050005,0.050005 0 0 0 0,0.03125 0.050005,0.050005 0 0 0 0.03125,0 l 0.0625,0 4.59375,0.46875 0,0.1875 0,0.03125 a 0.050005,0.050005 0 0 0 0,0.03125 0.050005,0.050005 0 0 0 0.03125,0.03125 l 0.03125,0 3.96875,0.375 0.0625,0 a 0.050005,0.050005 0 0 0 0.03125,0 0.050005,0.050005 0 0 0 0,-0.03125 0.050005,0.050005 0 0 0 0,-0.03125 0.050005,0.050005 0 0 0 0,-0.03125 l 0.28125,-1.125 c 0.08761,0.449359 0.164528,0.858018 0.25,1.28125 0.002,0.01 -0.002,0.02127 0,0.03125 0.0054,0.0158 0.0258,0.01691 0.03125,0.03125 0.02181,0.05737 0.03806,0.120629 0.0625,0.15625 0.03055,0.04453 0.07454,0.09409 0.125,0.09375 0.05046,-3.37e-4 0.09462,-0.04919 0.125,-0.09375 0.0243,-0.03565 0.04084,-0.09925 0.0625,-0.15625 0.0054,-0.01425 0.02586,-0.01557 0.03125,-0.03125 a 0.050005,0.050005 0 0 0 0,-0.03125 l 0.25,-1.28125 0.28125,1.125 a 0.050005,0.050005 0 0 0 0,0.03125 l 0,0.03125 a 0.050005,0.050005 0 0 0 0,0.03125 0.050005,0.050005 0 0 0 0.03125,0 l 0.0625,0 3.96875,-0.375 a 0.050005,0.050005 0 0 0 0.03125,0 0.050005,0.050005 0 0 0 0.03125,-0.03125 0.050005,0.050005 0 0 0 0,-0.03125 l 0,-0.03125 0,-0.21875 4.59375,-0.4375 a 0.050005,0.050005 0 0 0 0.03125,0 0.050005,0.050005 0 0 0 0.03125,0 0.050005,0.050005 0 0 0 0.03125,0 0.050005,0.050005 0 0 0 0,-0.03125 0.050005,0.050005 0 0 0 0,-0.03125 0.050005,0.050005 0 0 0 0,-0.03125 c 0.09927,-0.372978 0.201637,-0.747919 0.28125,-1.125 0.09782,-0.502873 0.206978,-1.018007 0.25,-1.53125 8.56e-4,-0.01021 -8.2e-4,-0.02104 0,-0.03125 C 42.13876,44.531871 42.12797,43.999338 42.0625,43.5 41.99459,43.076126 41.8867,42.651808 41.59375,42.3125 41.402729,42.074706 41.103947,41.943984 40.8125,41.875 40.79861,41.8717 40.79521,41.84666 40.78125,41.84375 l -0.0625,0 -7,-1.375 c 0.578605,-3.59278 1.088587,-7.220459 1.4375,-10.84375 0.185606,-1.784156 0.327336,-3.55267 0.40625,-5.34375 l 28.09375,-4.5625 a 0.050005,0.050005 0 0 0 0.03125,0 c 0.01603,-0.0032 0.01585,-0.02623 0.03125,-0.03125 a 0.050005,0.050005 0 0 0 0,-0.03125 c 0.113013,-0.04503 0.18958,-0.131349 0.21875,-0.25 0.0077,-0.03145 0.06397,-0.02794 0.0625,-0.0625 a 0.050005,0.050005 0 0 0 0,-0.03125 l 0,-5.0625 0,-0.03125 c 6.4e-4,-0.02413 -0.03014,-0.03866 -0.03125,-0.0625 -0.02337,-0.501664 -0.410965,-0.931701 -0.90625,-1 -0.0096,-0.0013 -0.02158,10e-4 -0.03125,0 a 0.050005,0.050005 0 0 0 0,-0.03125 0.050005,0.050005 0 0 0 -0.03125,0 l -0.03125,0 -23.53125,-1.78125 -0.03125,0 -0.03125,0 -3.78125,-1.5625 0,-0.03125 C 35.517489,8.2805897 35.403194,6.8282343 35.15625,5.375 34.999455,4.539239 34.823204,3.7020107 34.5,2.90625 34.396263,2.7291587 34.223707,2.6576159 34.03125,2.625 33.838793,2.5923841 33.615271,2.5934384 33.46875,2.5625 33.373159,2.539039 33.279419,2.5226169 33.1875,2.5 33.095581,2.4773831 33.02499,2.4607373 33,2.375 33.00002,2.364504 33.000157,2.354226 33,2.34375 32.9978,2.1963837 32.9913,2.0486564 32.96875,1.90625 32.94549,1.7863222 32.90647,1.6809769 32.875,1.5625 32.83143,1.3977996 32.78384,1.2206947 32.71875,1.0625 32.67309,0.92680717 32.594261,0.80825733 32.53125,0.6875 32.48829,0.6141356 32.46205,0.5396354 32.40625,0.46875 32.363928,0.40814747 32.294741,0.35866921 32.25,0.3125 32.21883,0.28842774 32.193993,0.26948756 32.15625,0.25 c -0.02455,-0.0127106 -0.06329,0.007373 -0.09375,0 -0.01015,-0.002458 -0.02048,0.001121 -0.03125,0 a 0.050005,0.050005 0 0 0 0,-0.03125 c -0.01089,-8.0895e-4 -0.01977,-9.7401e-4 -0.03125,0 4.14e-4,-4.837e-5 -0.01894,5.0367e-4 -0.03125,0 -0.01231,-5.0367e-4 -0.01037,-0.0122022 -0.03125,0 z"
       id="path4165" />
  </g>
</svg>
