<?xml version="1.0" encoding="UTF-8" standalone="no"?>
<!-- Created with Inkscape (http://www.inkscape.org/) -->

<svg
   xmlns:dc="http://purl.org/dc/elements/1.1/"
   xmlns:cc="http://creativecommons.org/ns#"
   xmlns:rdf="http://www.w3.org/1999/02/22-rdf-syntax-ns#"
   xmlns:svg="http://www.w3.org/2000/svg"
   xmlns="http://www.w3.org/2000/svg"
   xmlns:sodipodi="http://sodipodi.sourceforge.net/DTD/sodipodi-0.dtd"
   xmlns:inkscape="http://www.inkscape.org/namespaces/inkscape"
   width="45.317162"
   height="64.99778"
   viewBox="0 0 45.31716 64.997779"
   id="svg2"
   version="1.1"
   inkscape:version="0.91 r13725"
   sodipodi:docname="rotorcraft.svg">
  <defs
     id="defs4" />
  <sodipodi:namedview
     id="base"
     pagecolor="#ffffff"
     bordercolor="#666666"
     borderopacity="1.0"
     inkscape:pageopacity="0.0"
     inkscape:pageshadow="2"
     inkscape:zoom="2.8"
     inkscape:cx="41.227504"
     inkscape:cy="59.922514"
     inkscape:document-units="px"
     inkscape:current-layer="layer1"
     showgrid="false"
     fit-margin-top="0"
     fit-margin-left="0"
     fit-margin-right="0"
     fit-margin-bottom="0"
     inkscape:window-width="1366"
     inkscape:window-height="708"
     inkscape:window-x="-4"
     inkscape:window-y="0"
     inkscape:window-maximized="1"
     units="px" />
  <metadata
     id="metadata7">
    <rdf:RDF>
      <cc:Work
         rdf:about="">
        <dc:format>image/svg+xml</dc:format>
        <dc:type
           rdf:resource="http://purl.org/dc/dcmitype/StillImage" />
        <dc:title></dc:title>
      </cc:Work>
    </rdf:RDF>
  </metadata>
  <g
     inkscape:label="Layer 1"
     inkscape:groupmode="layer"
     id="layer1"
     transform="translate(0.49739728,0.49743044)">
    <path
       style="fill:none;fill-rule:evenodd;stroke:#000000;stroke-width:1px;stroke-linecap:butt;stroke-linejoin:miter;stroke-opacity:1"
       d="m 43.89309,0.4301 c -0.60546,-0.60546 -1.62623,-0.56506 -2.2813,0.0897 L 25.82444,16.3061 C 24.95171,-1.27473 21.64491,1.24212 21.64491,1.24212 c 0,0 -3.20153,-2.80873 -4.13518,14.07519 L 2.71103,0.51862 C 2.05636,-0.13606 1.03533,-0.17646 0.43,0.42902 c -0.60546,0.6052 -0.56506,1.6261 0.0896,2.28104 l 16.81957,16.81931 c -0.0454,1.63425 -0.072,3.41089 -0.0796,5.34281 l -0.90497,0.90496 -1.94113,0 0,1.94113 -13.89465,13.89492 c -0.6548,0.65454 -0.69533,1.67531 -0.09,2.28077 0.60533,0.60546 1.62636,0.5648 2.28104,-0.0896 l 11.70349,-11.70362 0,1.94073 3.09928,0 c 0,0 1.25961,6.97312 2.03417,8.65159 0.77495,1.67913 0.032,17.17487 2.09799,17.17487 0.38346,0 0.66928,-0.53374 0.88615,-1.41331 l 6.34515,-2.71897 0,-1.03314 -5.85155,0 c 0.34017,-4.67077 0.24161,-10.97316 0.71942,-12.00945 0.77416,-1.67847 2.03285,-8.65159 2.03285,-8.65159 l 3.09928,0 0,-2.974 12.73545,12.73689 c 0.65507,0.65442 1.67584,0.69495 2.2813,0.0896 0.60546,-0.60533 0.56479,-1.62623 -0.0901,-2.28077 L 28.876,26.68527 l 0,-0.90813 -0.90799,0 -1.94284,-1.9431 c -0.009,-1.15407 -0.0263,-2.25524 -0.0496,-3.29693 l 17.82849,-17.826 c 0.65389,-0.65494 0.69442,-1.67702 0.0891,-2.28103 z m -25.08888,51.17326 -0.5165,0 c -0.42794,0 -0.77495,0.34754 -0.77495,0.77521 l 0,10.84709 c 0,0.42768 0.34701,0.77469 0.77495,0.77469 l 0.5165,0 c 0.42768,0 0.77469,-0.34701 0.77469,-0.77469 l 0,-10.84709 c 0,-0.42781 -0.34701,-0.77521 -0.77469,-0.77521 z"
       id="path4136"
       inkscape:connector-curvature="0" />
  </g>
</svg>
